<?xml version="1.0" standalone="no"?>
<!DOCTYPE svg PUBLIC "-//W3C//DTD SVG 20010904//EN"
 "http://www.w3.org/TR/2001/REC-SVG-20010904/DTD/svg10.dtd">
<svg version="1.0" xmlns="http://www.w3.org/2000/svg"
 width="512.000000pt" height="512.000000pt" viewBox="0 0 512.000000 512.000000"
 preserveAspectRatio="xMidYMid meet">
<g transform="translate(0.000000,512.000000) scale(0.100000,-0.100000)"
fill="#000000" stroke="none">
<path d="M1083 3724 l-29 -36 -64 17 c-35 9 -71 17 -79 17 -27 2 -244 -13
-276 -18 -45 -7 -65 -39 -65 -105 l0 -56 -50 -6 c-28 -3 -58 -11 -68 -17 -15
-10 -15 -10 3 -6 11 3 41 7 68 11 41 5 47 3 47 -12 0 -10 -23 -37 -50 -61 -48
-41 -101 -114 -128 -175 -21 -49 -13 -42 38 32 46 66 125 150 142 151 4 0 15
-15 24 -32 9 -18 34 -56 56 -84 45 -60 45 -66 -2 -204 -15 -47 -27 -86 -25
-88 6 -6 44 87 61 151 10 34 19 64 20 66 2 2 20 -12 41 -30 21 -19 56 -45 78
-59 22 -13 71 -54 109 -91 l70 -67 0 -71 c1 -51 -3 -71 -11 -71 -23 0 -52 -38
-48 -62 8 -44 29 -68 74 -89 25 -11 56 -25 68 -31 41 -20 190 -137 272 -214
113 -107 152 -168 186 -295 46 -174 66 -242 85 -284 10 -22 20 -51 23 -64 l6
-23 -102 7 c-81 6 -269 9 -309 6 -12 -1 -48 -40 -48 -51 0 -16 34 -28 100 -35
84 -9 102 -19 94 -50 -8 -33 10 -33 58 0 31 21 49 25 108 25 110 0 155 15 197
66 19 24 40 44 45 44 15 0 43 -31 88 -99 28 -40 62 -76 94 -97 64 -41 106 -78
106 -92 0 -18 -32 -30 -106 -42 -116 -18 -123 -20 -165 -36 -56 -23 -67 -47
-31 -72 43 -30 52 -30 137 -1 56 20 83 25 92 17 7 -5 12 -13 11 -16 -5 -42 22
-42 46 -1 55 93 140 143 261 152 39 3 86 9 105 13 66 13 178 72 231 121 l51
48 297 2 c300 1 345 4 461 23 108 18 160 39 260 105 107 70 133 81 240 94 78
9 383 8 435 -2 26 -6 107 -17 225 -33 19 -3 56 -16 82 -29 31 -15 50 -20 54
-13 9 15 -9 24 -116 59 -179 58 -268 72 -460 72 -160 1 -295 -6 -345 -17 -11
-2 -69 -23 -130 -46 -235 -90 -284 -98 -600 -97 -226 0 -330 13 -390 48 -19
12 -35 24 -36 27 0 4 -2 62 -4 129 -2 68 -6 151 -9 185 -4 35 -9 88 -12 118
-2 30 -7 64 -9 76 -3 12 -7 39 -11 60 -12 78 -77 271 -121 364 -40 82 -59 108
-138 186 -96 95 -224 187 -316 228 -30 13 -117 44 -193 70 -151 50 -185 68
-258 133 -27 23 -60 46 -73 49 -20 5 -25 13 -25 38 0 17 -6 38 -13 47 -15 19
-71 37 -107 33 -14 -1 -53 -5 -87 -8 -57 -6 -64 -4 -94 21 -17 15 -38 42 -45
60 -13 30 -40 53 -62 53 -6 0 -23 -16 -39 -36z"/>
<path d="M635 3293 c-10 -21 -22 -46 -27 -55 -5 -10 -6 -18 -4 -18 8 0 58 101
53 106 -2 3 -12 -12 -22 -33z"/>
<path d="M585 3199 c-4 -6 -5 -12 -2 -15 2 -3 7 2 10 11 7 17 1 20 -8 4z"/>
</g>
</svg>
